<?xml version="1.0" encoding="UTF-8"?>
<!DOCTYPE svg PUBLIC "-//W3C//DTD SVG 1.1//EN" "http://www.w3.org/Graphics/SVG/1.1/DTD/svg11.dtd">
<!-- Creator: CorelDRAW X7 -->
<svg xmlns="http://www.w3.org/2000/svg" xml:space="preserve" width="8.5in" height="11in" version="1.1" style="shape-rendering:geometricPrecision; text-rendering:geometricPrecision; image-rendering:optimizeQuality; fill-rule:evenodd; clip-rule:evenodd"
viewBox="0 0 8500 11000"
 xmlns:xlink="http://www.w3.org/1999/xlink">
 <defs>
  <style type="text/css">
   <![CDATA[
    .str0 {stroke:#FEFEFE;stroke-width:6.94488}
    .str1 {stroke:#FEFEFE;stroke-width:3;stroke-linejoin:bevel}
    .fil3 {fill:none}
    .fil2 {fill:#727376}
    .fil1 {fill:#0E4067}
    .fil0 {fill:url(#id0)}
   ]]>
  </style>
  <linearGradient id="id0" gradientUnits="userSpaceOnUse" x1="3843.13" y1="3280.11" x2="4755.59" y2="1517.54">
   <stop offset="0" style="stop-opacity:0.619608; stop-color:#A2A39E"/>
   <stop offset="0.419608" style="stop-opacity:1; stop-color:#587283"/>
   <stop offset="1" style="stop-opacity:1; stop-color:#0E4067"/>
  </linearGradient>
 </defs>
 <g id="Layer_x0020_1">
  <metadata id="CorelCorpID_0Corel-Layer"/>
  <path class="fil0 str0" d="M4716 688c-582,272 -1087,654 -1560,1069 -801,704 -1510,1503 -2585,2717l749 0c704,-855 981,-1188 1251,-1517 250,-306 495,-609 790,-908 1002,-1015 2643,-1894 3946,-1305 339,191 413,305 514,553 101,333 -22,727 -309,931 -181,139 -356,194 -616,203l-1512 77 0 78 560 0 0 1888 238 0 0 -1888 79 0 0 1888 80 0 0 -1572 0 -316 562 -14c150,-5 248,-16 366,-45 149,-31 281,-93 400,-198 108,-95 208,-208 267,-351l0 0c44,-101 68,-170 84,-296 9,-64 13,-207 -4,-279 -28,-176 -51,-217 -129,-369 -74,-122 -172,-221 -288,-307 -111,-82 -221,-135 -349,-194 -130,-52 -200,-78 -300,-108 -126,-36 -235,-57 -370,-74 -622,-96 -1282,66 -1864,337z"/>
  <polygon class="fil1 str0" points="4832,2508 4832,4474 4911,4474 4911,2508 "/>
  <polygon class="fil1 str0" points="4514,2508 4514,4474 4753,4474 4753,2508 "/>
  <path class="fil1 str0" d="M3491 2508l-1612 1966 301 0 605 -736 769 0 0 736 79 0 0 -736 87 0 0 736 159 0 0 -1966 -388 0zm-641 1151l704 -855 0 855 -704 0zm783 0l0 -952 87 -105 0 1057 -87 0z"/>
  <path class="fil2" d="M473 4916l79 0 -40 -104 -39 104zm-85 122l111 -288 27 0 112 288 -38 0 -33 -85 -109 0 -32 85 -38 0zm261 -288l37 0 0 165c0,19 0,32 2,39 2,8 5,15 9,20 8,10 17,18 27,23 10,5 22,7 35,7 22,0 40,-6 54,-19 13,-13 20,-30 20,-51l0 -184 37 0 0 185c0,32 -11,58 -31,78 -20,20 -47,30 -80,30 -19,0 -37,-4 -52,-12 -16,-7 -29,-19 -40,-34 -6,-9 -11,-19 -14,-30 -2,-11 -4,-27 -4,-50l0 -167zm343 288l0 -251 -94 0 0 -37 225 0 0 37 -94 0 0 251 -37 0zm186 -144c0,15 2,29 7,42 5,13 12,25 21,36 9,10 19,18 32,23 12,6 24,9 37,9 13,0 26,-3 38,-8 12,-6 22,-14 31,-24 10,-11 17,-23 22,-36 4,-13 7,-27 7,-42 0,-15 -2,-28 -7,-42 -5,-13 -12,-25 -22,-36 -9,-10 -20,-18 -31,-24 -12,-5 -25,-8 -38,-8 -13,0 -25,3 -37,8 -12,6 -22,14 -32,24 -9,10 -16,22 -21,36 -5,13 -7,27 -7,42zm-39 -1c0,-20 3,-38 10,-56 7,-19 17,-35 30,-49 13,-14 28,-24 44,-32 17,-7 34,-11 52,-11 19,0 36,4 53,11 17,8 31,18 44,32 13,15 23,31 30,49 7,18 10,37 10,58 0,20 -3,39 -10,57 -7,18 -17,34 -30,48 -13,14 -28,25 -44,32 -17,7 -34,11 -53,11 -18,0 -35,-4 -52,-11 -17,-8 -31,-19 -44,-32 -13,-15 -23,-31 -30,-49 -7,-18 -10,-38 -10,-58zm314 145l0 -288 32 0 92 121 92 -121 32 0 0 288 -36 0 0 -225 -88 116 -89 -116 0 225 -35 0zm351 -122l80 0 -40 -104 -40 104zm-84 122l111 -288 26 0 113 288 -38 0 -33 -85 -109 0 -33 85 -37 0zm311 0l0 -251 -94 0 0 -37 224 0 0 37 -94 0 0 251 -36 0zm160 0l0 -288 154 0 0 36 -117 0 0 88 114 0 0 37 -114 0 0 90 121 0 0 37 -158 0zm298 -249l-58 0 0 210 58 0c32,0 57,-10 75,-28 18,-19 27,-45 27,-77 0,-33 -9,-58 -27,-77 -18,-19 -43,-28 -75,-28zm0 -39c19,0 35,2 49,6 13,4 26,10 37,19 18,13 31,30 40,50 10,21 15,44 15,69 0,25 -5,47 -15,68 -9,21 -23,38 -40,51 -11,9 -23,15 -37,19 -14,4 -30,6 -49,6l-94 0 0 -288 94 0zm279 288l0 -288 37 0 0 288 -37 0zm93 0l0 -288 32 0 168 223 0 -223 37 0 0 288 -33 0 -168 -224 0 224 -36 0zm361 0l0 -251 -94 0 0 -37 224 0 0 37 -94 0 0 251 -36 0zm160 0l0 -288 154 0 0 36 -118 0 0 88 114 0 0 37 -114 0 0 90 122 0 0 37 -158 0zm422 -141l0 122c-17,8 -33,14 -48,18 -15,4 -30,6 -43,6 -16,0 -30,-2 -44,-6 -13,-5 -26,-11 -37,-19 -19,-14 -34,-32 -44,-54 -11,-22 -16,-46 -16,-71 0,-20 3,-39 10,-57 7,-18 17,-34 30,-48 13,-14 29,-25 46,-32 17,-7 36,-11 57,-11 14,0 28,2 42,6 15,4 29,9 44,17l0 45c-16,-10 -31,-17 -45,-22 -15,-5 -28,-7 -42,-7 -30,0 -54,10 -74,31 -20,21 -29,47 -29,79 0,31 9,57 29,78 19,21 43,32 72,32 9,0 18,-1 27,-3 8,-3 17,-6 27,-10l0 -56 -48 0 0 -38 86 0zm47 141l0 -288 74 0c26,0 46,7 60,20 14,14 21,33 21,59 0,19 -3,34 -11,45 -8,12 -20,21 -37,26 5,3 9,6 12,11 4,4 9,11 15,21l62 106 -44 0 -44 -76c-13,-22 -24,-37 -32,-43 -8,-7 -18,-10 -29,-10l-11 0 0 129 -36 0zm36 -163l31 0c17,0 29,-4 38,-12 8,-7 13,-18 13,-34 0,-15 -4,-27 -13,-34 -8,-7 -21,-10 -38,-10l-31 0 0 90zm224 41l80 0 -40 -104 -40 104zm-84 122l111 -288 27 0 112 288 -38 0 -33 -85 -109 0 -32 85 -38 0zm311 0l0 -251 -94 0 0 -37 224 0 0 37 -94 0 0 251 -36 0zm161 0l0 -288 37 0 0 288 -37 0zm118 -144c0,15 3,29 7,42 5,13 12,25 21,36 9,10 20,18 32,23 12,6 24,9 37,9 14,0 26,-3 38,-8 12,-6 22,-14 32,-24 9,-11 16,-23 21,-36 5,-13 7,-27 7,-42 0,-15 -2,-28 -7,-42 -5,-13 -12,-25 -22,-36 -9,-10 -19,-18 -31,-24 -12,-5 -24,-8 -38,-8 -12,0 -25,3 -36,8 -12,6 -23,14 -33,24 -9,10 -16,22 -21,36 -4,13 -7,27 -7,42zm-39 -1c0,-20 4,-38 11,-56 6,-19 16,-35 29,-49 13,-14 28,-24 44,-32 17,-7 34,-11 52,-11 19,0 37,4 53,11 17,8 31,18 44,32 13,15 23,31 30,49 7,18 10,37 10,58 0,20 -3,39 -10,57 -7,18 -17,34 -29,48 -14,14 -29,25 -45,32 -16,7 -34,11 -53,11 -18,0 -35,-4 -52,-11 -16,-8 -31,-19 -44,-32 -13,-15 -23,-31 -30,-49 -7,-18 -10,-38 -10,-58zm314 145l0 -288 32 0 168 223 0 -223 37 0 0 288 -33 0 -168 -224 0 224 -36 0zm455 0l0 -251 -94 0 0 -37 225 0 0 37 -95 0 0 251 -36 0zm160 0l0 -288 154 0 0 36 -117 0 0 88 114 0 0 37 -114 0 0 90 121 0 0 37 -158 0zm422 -68l0 46c-15,9 -30,16 -46,20 -15,5 -30,7 -46,7 -14,0 -28,-2 -42,-6 -13,-5 -26,-11 -37,-20 -19,-14 -34,-32 -45,-53 -10,-22 -16,-46 -16,-71 0,-20 4,-39 11,-57 7,-18 17,-34 29,-48 14,-14 29,-25 46,-32 17,-7 36,-11 57,-11 14,0 28,2 43,6 14,3 29,9 44,17l0 45c-16,-10 -31,-17 -46,-22 -14,-5 -28,-7 -41,-7 -30,0 -55,10 -74,31 -20,21 -30,47 -30,79 0,31 10,57 29,78 19,21 44,32 73,32 15,0 30,-3 45,-9 15,-5 31,-14 46,-25zm42 68l0 -288 37 0 0 124 147 0 0 -124 37 0 0 288 -37 0 0 -125 -147 0 0 125 -37 0zm275 0l0 -288 32 0 169 223 0 -223 36 0 0 288 -33 0 -168 -224 0 224 -36 0zm317 -144c0,15 2,29 7,42 5,13 12,25 21,36 9,10 19,18 31,23 12,6 25,9 38,9 13,0 26,-3 38,-8 12,-6 22,-14 31,-24 9,-11 17,-23 21,-36 5,-13 8,-27 8,-42 0,-15 -3,-28 -7,-42 -5,-13 -13,-25 -22,-36 -9,-10 -20,-18 -32,-24 -11,-5 -24,-8 -37,-8 -13,0 -25,3 -37,8 -12,6 -22,14 -32,24 -9,10 -16,22 -21,36 -5,13 -7,27 -7,42zm-39 -1c0,-20 3,-38 10,-56 7,-19 17,-35 30,-49 13,-14 28,-24 44,-32 16,-7 34,-11 52,-11 19,0 36,4 53,11 16,8 31,18 44,32 13,15 23,31 30,49 6,18 10,37 10,58 0,20 -4,39 -11,57 -6,18 -16,34 -29,48 -13,14 -28,25 -44,32 -17,7 -34,11 -53,11 -18,0 -36,-4 -52,-11 -17,-8 -32,-19 -44,-32 -13,-15 -23,-31 -30,-49 -7,-18 -10,-38 -10,-58zm315 145l0 -288 36 0 0 251 122 0 0 37 -158 0zm199 -144c0,15 3,29 8,42 5,13 12,25 21,36 9,10 19,18 31,23 12,6 25,9 38,9 13,0 26,-3 38,-8 11,-6 22,-14 31,-24 9,-11 16,-23 21,-36 5,-13 8,-27 8,-42 0,-15 -3,-28 -8,-42 -4,-13 -12,-25 -21,-36 -9,-10 -20,-18 -32,-24 -11,-5 -24,-8 -37,-8 -13,0 -25,3 -37,8 -12,6 -23,14 -32,24 -9,10 -16,22 -21,36 -5,13 -8,27 -8,42zm-38 -1c0,-20 3,-38 10,-56 7,-19 17,-35 30,-49 13,-14 27,-24 44,-32 16,-7 34,-11 52,-11 18,0 36,4 53,11 16,8 31,18 44,32 13,15 23,31 30,49 6,18 10,37 10,58 0,20 -4,39 -11,57 -7,18 -16,34 -29,48 -13,14 -28,25 -45,32 -16,7 -34,11 -52,11 -18,0 -36,-4 -52,-11 -17,-8 -32,-19 -44,-32 -14,-15 -24,-31 -30,-49 -7,-18 -10,-38 -10,-58zm531 4l0 122c-16,8 -32,14 -47,18 -15,4 -30,6 -44,6 -15,0 -29,-2 -43,-6 -13,-5 -26,-11 -37,-19 -19,-14 -34,-32 -45,-54 -10,-22 -15,-46 -15,-71 0,-20 3,-39 10,-57 7,-18 17,-34 30,-48 13,-14 28,-25 45,-32 17,-7 36,-11 57,-11 15,0 29,2 43,6 15,4 29,9 44,17l0 45c-16,-10 -31,-17 -46,-22 -14,-5 -28,-7 -41,-7 -30,0 -55,10 -74,31 -20,21 -29,47 -29,79 0,31 9,57 28,78 20,21 44,32 73,32 9,0 18,-1 26,-3 9,-3 18,-6 28,-10l0 -56 -48 0 0 -38 85 0zm49 141l0 -288 37 0 0 288 -37 0zm92 0l0 -288 154 0 0 36 -117 0 0 88 114 0 0 37 -114 0 0 90 121 0 0 37 -158 0zm191 -23l0 -54c12,15 23,26 33,32 11,7 22,10 34,10 13,0 23,-3 30,-10 7,-6 11,-15 11,-27 0,-9 -2,-17 -7,-24 -5,-7 -17,-18 -36,-31 -29,-21 -47,-37 -54,-49 -8,-11 -11,-25 -11,-41 0,-23 7,-41 21,-55 14,-15 32,-22 54,-22 10,0 20,2 29,5 10,3 20,8 29,15l0 47c-11,-10 -21,-18 -31,-22 -9,-5 -19,-7 -28,-7 -12,0 -21,3 -28,9 -7,7 -11,15 -11,25 0,14 15,32 45,53l5 4c25,17 41,32 49,45 7,13 11,30 11,49 0,22 -7,40 -21,54 -14,15 -32,22 -55,22 -13,0 -26,-2 -37,-7 -11,-4 -22,-11 -32,-21z"/>
 </g>
 <g id="_0">
  <metadata id="CorelCorpID_1Corel-Layer"/>
  <line class="fil3 str1" x1="1874" y1="4474" x2="2174" y2= "4474" />
  <line class="fil3 str1" x1="3544" y1="4474" x2="3623" y2= "4474" />
  <line class="fil3 str1" x1="3709" y1="4474" x2="3867" y2= "4474" />
  <line class="fil3 str1" x1="4501" y1="4474" x2="4738" y2= "4474" />
  <line class="fil3 str1" x1="4817" y1="4474" x2="4896" y2= "4474" />
  <line class="fil3 str1" x1="5925" y1="4474" x2="6163" y2= "4474" />
  <line class="fil3 str1" x1="6242" y1="4474" x2="6321" y2= "4474" />
  <line class="fil3 str1" x1="3491" y1="2508" x2="3879" y2= "2508" />
  <line class="fil3 str1" x1="4514" y1="2508" x2="4753" y2= "2508" />
  <line class="fil3 str1" x1="4832" y1="2508" x2="4911" y2= "2508" />
  <line class="fil3 str1" x1="5384" y1="2586" x2="5944" y2= "2586" />
  <line class="fil3 str1" x1="6182" y1="2586" x2="6261" y2= "2586" />
  <line class="fil3 str1" x1="3720" y1="2602" x2="3720" y2= "3659" />
  <line class="fil3 str1" x1="3720" y1="3738" x2="3720" y2= "4474" />
  <line class="fil3 str1" x1="3879" y1="2508" x2="3879" y2= "4474" />
  <line class="fil3 str1" x1="4514" y1="2508" x2="4514" y2= "4474" />
  <line class="fil3 str1" x1="4753" y1="2508" x2="4753" y2= "4474" />
  <line class="fil3 str1" x1="4832" y1="2508" x2="4832" y2= "4474" />
  <line class="fil3 str1" x1="4911" y1="2508" x2="4911" y2= "4474" />
  <line class="fil3 str1" x1="5944" y1="2586" x2="5944" y2= "4474" />
  <line class="fil3 str1" x1="6182" y1="2586" x2="6182" y2= "4474" />
  <line class="fil3 str1" x1="6261" y1="2586" x2="6261" y2= "4474" />
  <line class="fil3 str1" x1="6341" y1="2902" x2="6341" y2= "4474" />
  <line class="fil3 str1" x1="2180" y1="4474" x2="2785" y2= "3738" />
  <line class="fil3 str1" x1="1879" y1="4474" x2="3491" y2= "2508" />
  <line class="fil3 str1" x1="2850" y1="3659" x2="3554" y2= "2804" />
  <line class="fil3 str1" x1="3633" y1="2707" x2="3720" y2= "2602" />
  <line class="fil3 str1" x1="3554" y1="2804" x2="3554" y2= "3659" />
  <line class="fil3 str1" x1="3554" y1="3738" x2="3554" y2= "4474" />
  <line class="fil3 str1" x1="3633" y1="2707" x2="3633" y2= "3659" />
  <line class="fil3 str1" x1="3633" y1="3738" x2="3633" y2= "4474" />
  <line class="fil3 str1" x1="3720" y1="3659" x2="3633" y2= "3659" />
  <line class="fil3 str1" x1="3554" y1="3659" x2="2850" y2= "3659" />
  <line class="fil3 str1" x1="3720" y1="3738" x2="3633" y2= "3738" />
  <line class="fil3 str1" x1="3554" y1="3738" x2="2785" y2= "3738" />
  <line class="fil3 str1" x1="5384" y1="2508" x2="5384" y2= "2586" />
  <line class="fil3 str1" x1="6341" y1="2902" x2="6341" y2= "2586" />
 </g>
</svg>
